<svg width="24" height="24" viewBox="0 0 24 24" fill="none" xmlns="http://www.w3.org/2000/svg">
<rect width="24" height="24" fill="white" fill-opacity="0.01"/>
<path d="M14.4191 20.4932L21.3214 22.0948L19.0235 15.3665L14.4191 20.4932ZM11.8862 18.352C12.2256 15.88 12.3562 13.3819 12.3301 10.8578C12.304 8.54246 12.1473 6.20106 11.8862 3.84224C11.625 6.20106 11.4683 8.54246 11.4422 10.8578C11.4161 13.3732 11.5467 15.88 11.8862 18.352ZM17.7266 14.3568L15.8639 17.5599L18.4578 14.6702L17.7266 14.3568ZM12.5999 21.4507H11.8774H11.155L11.8774 22.6866L12.5999 21.4507ZM12.4171 20.5715H13.1134L13.1395 20.528C13.1395 20.5193 13.1483 20.5106 13.157 20.5019L17.1609 13.5996C17.1696 13.5821 17.1782 13.5647 17.1869 13.556L17.5264 12.9641L12.6782 3.04146C12.9916 5.6614 13.1831 8.26393 13.2092 10.8491C13.244 14.1305 13.009 17.3771 12.4171 20.5715ZM10.1801 21.5116L2.05051 23.4004C1.97217 23.4178 1.88514 23.4178 1.7981 23.3917C1.57179 23.3133 1.44991 23.0609 1.51955 22.8346L4.30486 14.6702C4.33968 14.5483 4.42673 14.4438 4.54858 14.3916L5.74975 13.8781L5.35807 13.2079C5.28844 13.086 5.27974 12.9293 5.34067 12.7988L11.4597 0.273557C11.5119 0.134291 11.6424 0.0298439 11.7991 0.0037316C12.008 -0.0223807 12.1995 0.0907706 12.2691 0.273557L18.3794 12.7727C18.4491 12.9032 18.4578 13.0686 18.3794 13.2079L18.1531 13.5996L19.3543 14.1131C19.4761 14.1653 19.5632 14.2698 19.598 14.3916L22.3833 22.5561C22.4617 22.7824 22.3398 23.0348 22.1048 23.1131C22.0177 23.1393 21.9307 23.1393 21.8524 23.1219L13.7227 21.2331L13.6879 21.2679L12.2343 23.7747C12.1995 23.8356 12.1386 23.8965 12.0776 23.94C11.8687 24.0619 11.5989 23.9923 11.4771 23.7834L10.1801 21.5551V21.5116ZM4.90546 15.6363L2.60756 22.3646L9.50993 20.763L4.90546 15.6363ZM6.20236 14.6353L5.47123 14.9487L8.06506 17.8384L6.20236 14.6353ZM6.75073 13.8346C6.75943 13.852 6.76814 13.8607 6.77684 13.8781L10.6589 20.5715H11.3552C10.7633 17.3771 10.5283 14.1392 10.5631 10.8491C10.5892 8.26393 10.7807 5.6614 11.0941 3.04146L6.24588 12.9641L6.75073 13.8346Z" fill="white"/>
</svg>
